<svg width="47" height="47" viewBox="0 0 47 47" fill="none" xmlns="http://www.w3.org/2000/svg">
<circle cx="23.5" cy="23.5" r="23.5" fill="#16A4B0"/>
<path d="M9.46495 17.5651C9.53315 16.0746 9.76652 15.1134 10.0821 14.2975L10.0864 14.2862C10.3991 13.4559 10.889 12.7038 11.522 12.0821L11.5309 12.0734L11.5396 12.0645C12.1618 11.4307 12.9143 10.9412 13.7438 10.6293L13.7581 10.6238C14.5722 10.3073 15.5315 10.0748 17.0232 10.0066M9.46495 17.5651C9.39324 19.1575 9.37497 19.6511 9.37497 23.7799C9.37497 27.9097 9.39224 28.4022 9.46491 29.995M9.46495 17.5651L9.46495 17.9667M10.0877 33.2744C10.3996 34.1039 10.889 34.8564 11.5228 35.4786L11.5317 35.4873L11.5404 35.4961C12.1621 36.1291 12.9143 36.6191 13.7446 36.9319L13.757 36.9365C14.5718 37.2525 15.5316 37.4851 17.0232 37.5533M10.0877 33.2744L10.0822 33.2601C9.7656 32.446 9.5331 31.4867 9.46491 29.995M10.0877 33.2744L10.069 33.1759M9.46491 29.995L9.48933 30.1236M9.46491 29.995L9.46491 29.5923M10.069 33.1759L9.48933 30.1236M10.069 33.1759C9.82279 32.5255 9.56929 31.6182 9.48933 30.1236M10.069 33.1759C10.0776 33.1987 10.0862 33.2212 10.0948 33.2434C10.407 34.085 10.9017 34.8471 11.5432 35.4749C12.1708 36.1163 12.9325 36.6109 13.7739 36.923C14.4491 37.1861 15.4004 37.4609 17.023 37.5352C18.6604 37.6098 19.1662 37.625 23.2383 37.625C27.3103 37.625 27.8166 37.6097 29.454 37.5352C31.0785 37.4608 32.0288 37.1844 32.7016 36.9234C33.5434 36.6114 34.3056 36.1167 34.9333 35.4748C35.5747 34.8473 36.0692 34.0856 36.3814 33.2443C36.6444 32.5691 36.9192 31.6177 36.9936 29.9952C37.0681 28.3578 37.0833 27.8509 37.0833 23.7799C37.0833 19.7089 37.0681 19.2016 36.9936 17.5642C36.9187 15.9312 36.6398 14.9795 36.3777 14.3061C36.035 13.4213 35.6003 12.7522 34.9323 12.0841C34.2656 11.4187 33.5982 10.9838 32.7128 10.6408C32.037 10.3765 31.0846 10.0994 29.454 10.0246C29.3122 10.0182 29.1789 10.0122 29.051 10.0066M9.48933 30.1236C9.48708 30.0814 9.48496 30.0388 9.48298 29.9957C9.47652 29.8537 9.47051 29.7203 9.46491 29.5923M17.0232 10.0066C18.616 9.93389 19.1095 9.91663 23.2383 9.91663C27.367 9.91663 27.8603 9.93488 29.4527 10.0066M17.0232 10.0066L17.4259 10.0066M29.4527 10.0066L29.051 10.0066M29.4527 10.0066C30.9434 10.0748 31.9047 10.3081 32.7207 10.6237L32.732 10.628C33.5623 10.9408 34.3144 11.4307 34.9361 12.0637L34.9447 12.0725L34.9535 12.0811C35.5866 12.7029 36.0765 13.4552 36.389 14.2857L36.3944 14.2998C36.7109 15.1138 36.9434 16.0732 37.0116 17.5649M17.4259 10.0066L29.051 10.0066M17.4259 10.0066C18.7747 9.94759 19.5201 9.9349 23.2383 9.9349C26.9567 9.9349 27.702 9.94759 29.051 10.0066M17.4259 10.0066C17.2979 10.0122 17.1645 10.0182 17.0225 10.0246C15.398 10.0991 14.4477 10.3755 13.7749 10.6364C12.93 10.9497 12.1652 11.4469 11.5362 12.0923C10.8743 12.7568 10.4411 13.4228 10.0991 14.3053C9.83491 14.9811 9.55769 15.9339 9.48296 17.5646C9.47652 17.7061 9.47053 17.8391 9.46495 17.9667M37.0116 29.995C36.9434 31.4866 36.7109 32.4464 36.3949 33.2612L36.3902 33.2736C36.0774 34.1039 35.5875 34.8561 34.9545 35.4778L34.9456 35.4865L34.9369 35.4954C34.3147 36.1292 33.5623 36.6186 32.7327 36.9305L32.7184 36.936C31.9044 37.2526 30.945 37.4851 29.4533 37.5533M9.46491 29.5923C9.40594 28.2435 9.39324 27.4981 9.39324 23.7799C9.39324 20.0607 9.40593 19.3162 9.46495 17.9667M9.46491 29.5923L9.46495 17.9667M20.7726 29.7326C21.5543 30.0564 22.3922 30.2231 23.2383 30.2231C24.9471 30.2231 26.5859 29.5442 27.7943 28.3359C29.0026 27.1276 29.6814 25.4888 29.6814 23.7799C29.6814 22.0711 29.0026 20.4323 27.7943 19.2239C26.5859 18.0156 24.9471 17.3368 23.2383 17.3368C22.3922 17.3368 21.5543 17.5034 20.7726 17.8272C19.9909 18.151 19.2806 18.6256 18.6823 19.2239C18.084 19.8222 17.6094 20.5325 17.2856 21.3142C16.9618 22.096 16.7951 22.9338 16.7951 23.7799C16.7951 24.6261 16.9618 25.4639 17.2856 26.2456C17.6094 27.0273 18.084 27.7376 18.6823 28.3359C19.2806 28.9342 19.9909 29.4088 20.7726 29.7326ZM18.6679 19.2096C19.8801 17.9974 21.5241 17.3165 23.2383 17.3165C24.9525 17.3165 26.5965 17.9974 27.8086 19.2096C29.0208 20.4217 29.7017 22.0657 29.7017 23.7799C29.7017 25.4941 29.0208 27.1381 27.8086 28.3503C26.5965 29.5624 24.9525 30.2434 23.2383 30.2434C21.5241 30.2434 19.8801 29.5624 18.6679 28.3503C17.4558 27.1381 16.7748 25.4941 16.7748 23.7799C16.7748 22.0657 17.4558 20.4217 18.6679 19.2096ZM33.3413 15.8116C33.3413 16.3023 33.1464 16.7728 32.7994 17.1198C32.4525 17.4667 31.9819 17.6616 31.4913 17.6616C31.0007 17.6616 30.5301 17.4667 30.1832 17.1198C29.8362 16.7728 29.6413 16.3023 29.6413 15.8116C29.6413 15.321 29.8362 14.8505 30.1832 14.5035C30.5301 14.1566 31.0007 13.9617 31.4913 13.9617C31.9819 13.9617 32.4525 14.1566 32.7994 14.5035C33.1464 14.8505 33.3413 15.321 33.3413 15.8116Z" stroke="white" stroke-width="2.07951" stroke-linejoin="round"/>
</svg>
