<svg width="47" height="47" viewBox="0 0 47 47" fill="none" xmlns="http://www.w3.org/2000/svg">
<circle cx="23.5" cy="23.5" r="23.5" fill="#16A4B0"/>
<path d="M30.5317 14.4877C29.4626 13.262 28.8199 11.6638 28.8199 9.91669H27.4802M30.5317 14.4877C31.506 15.6051 32.8252 16.4178 34.3274 16.736C34.7942 16.8376 35.2813 16.8918 35.7888 16.8918V21.9029C33.1906 21.9029 30.7818 21.07 28.8197 19.6614V29.8532C28.8197 34.9457 24.6787 39.0834 19.5973 39.0834C16.9382 39.0834 14.5362 37.9456 12.8514 36.1376C11.3154 34.4852 10.3749 32.2775 10.3749 29.8532C10.3749 24.8352 14.3941 20.7449 19.374 20.6366M30.5317 14.4877C30.5057 14.4707 30.4797 14.4536 30.4539 14.4363M16.1872 32.3046C15.6865 31.6139 15.3888 30.7674 15.3888 29.8464C15.3888 27.5237 17.2766 25.6343 19.5974 25.6343C20.0305 25.6343 20.4499 25.7087 20.8424 25.8307V20.7112C20.4364 20.6569 20.0237 20.623 19.5974 20.623C19.523 20.623 18.9234 20.6629 18.849 20.6629M27.4731 9.91669H23.8059L23.7991 30.0089C23.718 32.2572 21.8639 34.0653 19.5973 34.0653C18.1899 34.0653 16.9517 33.3678 16.1804 32.3114" stroke="white" stroke-width="2.07951" stroke-linejoin="round"/>
</svg>
