<svg width="47" height="47" viewBox="0 0 47 47" fill="none" xmlns="http://www.w3.org/2000/svg">
<circle cx="23.5" cy="23.5" r="23.5" fill="#16A4B0"/>
<path fill-rule="evenodd" clip-rule="evenodd" d="M19.8837 17.3263C19.6192 16.7232 19.3254 16.7085 19.0755 16.7085C18.8549 16.6939 18.6188 16.6939 18.3689 16.6939C18.1346 16.6939 17.7373 16.7818 17.3996 17.1497C17.061 17.5168 16.1355 18.3844 16.1355 20.1629C16.1355 21.9422 17.4289 23.662 17.6055 23.8972C17.7813 24.1325 20.1043 27.8953 23.7801 29.3514C26.8372 30.5569 27.455 30.3217 28.1167 30.2476C28.7776 30.1743 30.2484 29.3807 30.5569 28.5277C30.8507 27.6902 30.8507 26.9552 30.7628 26.8079C30.6749 26.6614 30.4242 26.5726 30.0718 26.3814C29.7039 26.2056 27.9401 25.3233 27.6023 25.2052C27.2637 25.088 27.0285 25.0294 26.7932 25.3819C26.558 25.7498 25.867 26.558 25.6472 26.7932C25.4404 27.0285 25.2207 27.0577 24.8674 26.8811C24.5004 26.7053 23.3389 26.3228 21.9568 25.088C20.8832 24.1316 20.1629 22.9417 19.9423 22.5893C19.7372 22.2213 19.913 22.0301 20.1043 21.8534C20.2663 21.6923 20.4722 21.4278 20.6488 21.2218C20.8246 21.015 20.8832 20.8539 21.0159 20.6187C21.1331 20.3835 21.0745 20.1629 20.9866 19.9871C20.8979 19.8251 20.2077 18.0467 19.8837 17.3263Z" stroke="white" stroke-width="2.07951" stroke-linejoin="round"/>
</svg>
